{
  "accessors": [
    {
      "bufferView": 2,
      "componentType": 5126,
      "count": 4433,
      "max": [
        0.14512348175048828,
        0.14512339234352112,
        2.9372808933258057
      ],
      "min": [
        -0.744116485118866,
        -0.14512360095977783,
        -0.5790748000144958
      ],
      "type": "VEC3"
    },
    {
      "bufferView": 2,
      "byteOffset": 53196,
      "componentType": 5126,
      "count": 4433,
      "max": [
        1.0,
        1.0,
        1.0
      ],
      "min": [
        -1.0,
        -1.0,
        -1.0
      ],
      "type": "VEC3"
    },
    {
      "bufferView": 1,
      "componentType": 5126,
      "count": 4433,
      "max": [
        0.0,
        0.0
      ],
      "min": [
        0.0,
        0.0
      ],
      "type": "VEC2"
    },
    {
      "bufferView": 0,
      "componentType": 5125,
      "count": 26520,
      "type": "SCALAR"
    },
    {
      "bufferView": 2,
      "byteOffset": 106392,
      "componentType": 5126,
      "count": 168,
      "max": [
        0.09237364679574966,
        0.09237352758646011,
        -0.5790747404098511
      ],
      "min": [
        -0.09237362444400787,
        -0.09237374365329742,
        -0.7809248566627502
      ],
      "type": "VEC3"
    },
    {
      "bufferView": 2,
      "byteOffset": 108408,
      "componentType": 5126,
      "count": 168,
      "max": [
        0.9999973773956299,
        0.9999973773956299,
        0.16178131103515625
      ],
      "min": [
        -0.9999973773956299,
        -0.9999973773956299,
        -0.7903323173522949
      ],
      "type": "VEC3"
    },
    {
      "bufferView": 1,
      "byteOffset": 35464,
      "componentType": 5126,
      "count": 168,
      "max": [
        0.0,
        0.0
      ],
      "min": [
        0.0,
        0.0
      ],
      "type": "VEC2"
    },
    {
      "bufferView": 0,
      "byteOffset": 106080,
      "componentType": 5125,
      "count": 864,
      "type": "SCALAR"
    },
    {
      "bufferView": 2,
      "byteOffset": 110424,
      "componentType": 5126,
      "count": 2114,
      "max": [
        0.127461239695549,
        0.12747538089752197,
        0.16371043026447296
      ],
      "min": [
        -0.12746120989322662,
        -0.12747535109519958,
        -0.16371044516563416
      ],
      "type": "VEC3"
    },
    {
      "bufferView": 2,
      "byteOffset": 135792,
      "componentType": 5126,
      "count": 2114,
      "max": [
        1.0,
        1.0,
        1.0
      ],
      "min": [
        -1.0,
        -1.0,
        -1.0
      ],
      "type": "VEC3"
    },
    {
      "bufferView": 1,
      "byteOffset": 36808,
      "componentType": 5126,
      "count": 2114,
      "max": [
        0.0,
        0.0
      ],
      "min": [
        0.0,
        0.0
      ],
      "type": "VEC2"
    },
    {
      "bufferView": 0,
      "byteOffset": 109536,
      "componentType": 5125,
      "count": 12672,
      "type": "SCALAR"
    },
    {
      "bufferView": 2,
      "byteOffset": 161160,
      "componentType": 5126,
      "count": 6208,
      "max": [
        0.7814183235168457,
        0.11783632636070251,
        -0.7583355903625488
      ],
      "min": [
        -0.7814183235168457,
        -0.11783633381128311,
        -2.3006796836853027
      ],
      "type": "VEC3"
    },
    {
      "bufferView": 2,
      "byteOffset": 235656,
      "componentType": 5126,
      "count": 6208,
      "max": [
        0.9999387264251709,
        1.0,
        1.0
      ],
      "min": [
        -0.9999387264251709,
        -1.0,
        -1.0
      ],
      "type": "VEC3"
    },
    {
      "bufferView": 1,
      "byteOffset": 53720,
      "componentType": 5126,
      "count": 6208,
      "max": [
        0.0,
        0.0
      ],
      "min": [
        0.0,
        0.0
      ],
      "type": "VEC2"
    },
    {
      "bufferView": 0,
      "byteOffset": 160224,
      "componentType": 5125,
      "count": 37248,
      "type": "SCALAR"
    },
    {
      "bufferView": 2,
      "byteOffset": 310152,
      "componentType": 5126,
      "count": 2114,
      "max": [
        0.19908076524734497,
        0.19910289347171783,
        0.25569820404052734
      ],
      "min": [
        -0.1990807205438614,
        -0.19910284876823425,
        -0.22207258641719818
      ],
      "type": "VEC3"
    },
    {
      "bufferView": 2,
      "byteOffset": 335520,
      "componentType": 5126,
      "count": 2114,
      "max": [
        1.0,
        1.0,
        1.0
      ],
      "min": [
        -1.0,
        -1.0,
        -1.0
      ],
      "type": "VEC3"
    },
    {
      "bufferView": 1,
      "byteOffset": 103384,
      "componentType": 5126,
      "count": 2114,
      "max": [
        0.0,
        0.0
      ],
      "min": [
        0.0,
        0.0
      ],
      "type": "VEC2"
    },
    {
      "bufferView": 0,
      "byteOffset": 309216,
      "componentType": 5125,
      "count": 12672,
      "type": "SCALAR"
    },
    {
      "bufferView": 2,
      "byteOffset": 360888,
      "componentType": 5126,
      "count": 72,
      "max": [
        0.09674263000488281,
        0.09674244374036789,
        0.023978233337402344
      ],
      "min": [
        -0.09674260765314102,
        -0.09674274921417236,
        -0.9030908346176147
      ],
      "type": "VEC3"
    },
    {
      "bufferView": 2,
      "byteOffset": 361752,
      "componentType": 5126,
      "count": 72,
      "max": [
        1.0,
        1.0,
        0.0
      ],
      "min": [
        -1.0,
        -1.0,
        0.0
      ],
      "type": "VEC3"
    },
    {
      "bufferView": 1,
      "byteOffset": 120296,
      "componentType": 5126,
      "count": 72,
      "max": [
        0.0,
        0.0
      ],
      "min": [
        0.0,
        0.0
      ],
      "type": "VEC2"
    },
    {
      "bufferView": 0,
      "byteOffset": 359904,
      "componentType": 5125,
      "count": 288,
      "type": "SCALAR"
    },
    {
      "bufferView": 2,
      "byteOffset": 362616,
      "componentType": 5126,
      "count": 351,
      "max": [
        0.02038726955652237,
        0.10259877145290375,
        0.09887787699699402
      ],
      "min": [
        -0.02065226063132286,
        -0.10259877145290375,
        -0.16625364124774933
      ],
      "type": "VEC3"
    },
    {
      "bufferView": 2,
      "byteOffset": 366828,
      "componentType": 5126,
      "count": 351,
      "max": [
        1.0,
        1.0,
        1.0
      ],
      "min": [
        -1.0,
        -1.0,
        -1.0
      ],
      "type": "VEC3"
    },
    {
      "bufferView": 1,
      "byteOffset": 120872,
      "componentType": 5126,
      "count": 351,
      "max": [
        0.75,
        1.0
      ],
      "min": [
        0.25,
        2.220446049250313e-16
      ],
      "type": "VEC2"
    },
    {
      "bufferView": 0,
      "byteOffset": 361056,
      "componentType": 5125,
      "count": 1872,
      "type": "SCALAR"
    },
    {
      "bufferView": 2,
      "byteOffset": 371040,
      "componentType": 5126,
      "count": 11179,
      "max": [
        0.1537969559431076,
        -0.015286572277545929,
        0.3755287528038025
      ],
      "min": [
        -1.058538556098938,
        -0.11697760224342346,
        -0.26254022121429443
      ],
      "type": "VEC3"
    },
    {
      "bufferView": 2,
      "byteOffset": 505188,
      "componentType": 5126,
      "count": 11179,
      "max": [
        0.9999221563339233,
        1.0,
        0.9998220205307007
      ],
      "min": [
        -0.9999449253082275,
        -1.0,
        -0.9999294281005859
      ],
      "type": "VEC3"
    },
    {
      "bufferView": 1,
      "byteOffset": 123680,
      "componentType": 5126,
      "count": 11179,
      "max": [
        0.7500000596046448,
        1.0
      ],
      "min": [
        0.2499999701976776,
        2.220446049250313e-16
      ],
      "type": "VEC2"
    },
    {
      "bufferView": 0,
      "byteOffset": 368544,
      "componentType": 5125,
      "count": 60480,
      "type": "SCALAR"
    },
    {
      "bufferView": 2,
      "byteOffset": 639336,
      "componentType": 5126,
      "count": 402,
      "max": [
        0.25293293595314026,
        0.058161042630672455,
        0.2061176300048828
      ],
      "min": [
        -0.20718392729759216,
        -0.05816104635596275,
        -0.2295621931552887
      ],
      "type": "VEC3"
    },
    {
      "bufferView": 2,
      "byteOffset": 644160,
      "componentType": 5126,
      "count": 402,
      "max": [
        0.9886996746063232,
        1.0,
        0.9886996746063232
      ],
      "min": [
        -0.9886996746063232,
        -1.0,
        -0.9886996746063232
      ],
      "type": "VEC3"
    },
    {
      "bufferView": 1,
      "byteOffset": 213112,
      "componentType": 5126,
      "count": 402,
      "max": [
        0.8750001192092896,
        1.0
      ],
      "min": [
        0.125,
        0.0
      ],
      "type": "VEC2"
    },
    {
      "bufferView": 0,
      "byteOffset": 610464,
      "componentType": 5125,
      "count": 1728,
      "type": "SCALAR"
    },
    {
      "bufferView": 2,
      "byteOffset": 648984,
      "componentType": 5126,
      "count": 351,
      "max": [
        0.05018257349729538,
        0.008429077453911304,
        -0.005488683469593525
      ],
      "min": [
        -0.04944298788905144,
        -0.00869406946003437,
        -0.12391753494739532
      ],
      "type": "VEC3"
    },
    {
      "bufferView": 2,
      "byteOffset": 653196,
      "componentType": 5126,
      "count": 351,
      "max": [
        0.9993157386779785,
        1.0,
        0.9993157386779785
      ],
      "min": [
        -0.9993157386779785,
        -1.0,
        -0.9993157386779785
      ],
      "type": "VEC3"
    },
    {
      "bufferView": 1,
      "byteOffset": 216328,
      "componentType": 5126,
      "count": 351,
      "max": [
        0.75,
        1.0
      ],
      "min": [
        0.25,
        2.220446049250313e-16
      ],
      "type": "VEC2"
    },
    {
      "bufferView": 0,
      "byteOffset": 617376,
      "componentType": 5125,
      "count": 1872,
      "type": "SCALAR"
    }
  ],
  "asset": {
    "extras": {
      "author": "agrimor (https://sketchfab.com/agrimor)",
      "license": "CC-BY-4.0 (http://creativecommons.org/licenses/by/4.0/)",
      "source": "https://sketchfab.com/3d-models/kingdom-key-8ddf11bdcece4c638a759178922a913e",
      "title": "Kingdom Key"
    },
    "generator": "Sketchfab-12.67.0",
    "version": "2.0"
  },
  "bufferViews": [
    {
      "buffer": 0,
      "byteLength": 624864,
      "name": "floatBufferViews",
      "target": 34963
    },
    {
      "buffer": 0,
      "byteLength": 219136,
      "byteOffset": 624864,
      "byteStride": 8,
      "name": "floatBufferViews",
      "target": 34962
    },
    {
      "buffer": 0,
      "byteLength": 657408,
      "byteOffset": 844000,
      "byteStride": 12,
      "name": "floatBufferViews",
      "target": 34962
    }
  ],
  "buffers": [
    {
      "byteLength": 1501408,
      "uri": "scene.bin"
    }
  ],
  "materials": [
    {
      "doubleSided": true,
      "name": "Torus.001__0",
      "pbrMetallicRoughness": {
        "metallicFactor": 0.0,
        "roughnessFactor": 0.6
      }
    },
    {
      "name": "Metal",
      "pbrMetallicRoughness": {
        "baseColorFactor": [
          0.8,
          0.8,
          0.8,
          1.0
        ],
        "roughnessFactor": 0.49390243899999997
      }
    },
    {
      "doubleSided": true,
      "name": "Blue_Metal",
      "pbrMetallicRoughness": {
        "baseColorFactor": [
          0.0225025755,
          0.0502885014,
          0.6281055095,
          1.0
        ],
        "roughnessFactor": 0.0
      }
    },
    {
      "doubleSided": true,
      "name": "Cylinder_Yellow",
      "pbrMetallicRoughness": {
        "baseColorFactor": [
          0.8,
          0.447387,
          0.0156611,
          1.0
        ],
        "roughnessFactor": 0.48780487800000005
      }
    },
    {
      "doubleSided": true,
      "name": "Yellow_Handle",
      "pbrMetallicRoughness": {
        "baseColorFactor": [
          0.8,
          0.419689,
          0.0,
          1.0
        ],
        "metallicFactor": 0.4390243902,
        "roughnessFactor": 0.6341463414999999
      }
    },
    {
      "doubleSided": true,
      "name": "HandleBlack",
      "pbrMetallicRoughness": {
        "baseColorFactor": [
          0.0,
          0.0,
          0.0,
          1.0
        ],
        "roughnessFactor": 0.0
      }
    },
    {
      "doubleSided": true,
      "name": "Metal_Rough",
      "pbrMetallicRoughness": {
        "baseColorFactor": [
          0.6435635529,
          0.5574938604,
          0.5574938604,
          1.0
        ],
        "metallicFactor": 0.3353658537,
        "roughnessFactor": 0.9479996276
      }
    }
  ],
  "meshes": [
    {
      "name": "Hoja _Metal_0",
      "primitives": [
        {
          "attributes": {
            "NORMAL": 1,
            "POSITION": 0,
            "TEXCOORD_0": 2
          },
          "indices": 3,
          "material": 1,
          "mode": 4
        }
      ]
    },
    {
      "name": "Hoja _Blue Metal_0",
      "primitives": [
        {
          "attributes": {
            "NORMAL": 5,
            "POSITION": 4,
            "TEXCOORD_0": 6
          },
          "indices": 7,
          "material": 2,
          "mode": 4
        }
      ]
    },
    {
      "name": "Cylinder Handle_Cylinder Yellow_0",
      "primitives": [
        {
          "attributes": {
            "NORMAL": 9,
            "POSITION": 8,
            "TEXCOORD_0": 10
          },
          "indices": 11,
          "material": 3,
          "mode": 4
        }
      ]
    },
    {
      "name": "Handle Yellow_Yellow Handle_0",
      "primitives": [
        {
          "attributes": {
            "NORMAL": 13,
            "POSITION": 12,
            "TEXCOORD_0": 14
          },
          "indices": 15,
          "material": 4,
          "mode": 4
        }
      ]
    },
    {
      "name": "Cylinder Handle.001_Cylinder Yellow_0",
      "primitives": [
        {
          "attributes": {
            "NORMAL": 17,
            "POSITION": 16,
            "TEXCOORD_0": 18
          },
          "indices": 19,
          "material": 3,
          "mode": 4
        }
      ]
    },
    {
      "name": "Handle_HandleBlack_0",
      "primitives": [
        {
          "attributes": {
            "NORMAL": 21,
            "POSITION": 20,
            "TEXCOORD_0": 22
          },
          "indices": 23,
          "material": 5,
          "mode": 4
        }
      ]
    },
    {
      "name": "Torus_Yellow Handle_0",
      "primitives": [
        {
          "attributes": {
            "NORMAL": 25,
            "POSITION": 24,
            "TEXCOORD_0": 26
          },
          "indices": 27,
          "material": 4,
          "mode": 4
        }
      ]
    },
    {
      "name": "Chain_Metal Rough_0",
      "primitives": [
        {
          "attributes": {
            "NORMAL": 29,
            "POSITION": 28,
            "TEXCOORD_0": 30
          },
          "indices": 31,
          "material": 6,
          "mode": 4
        }
      ]
    },
    {
      "name": "Mickey Symbol_Metal_0",
      "primitives": [
        {
          "attributes": {
            "NORMAL": 33,
            "POSITION": 32,
            "TEXCOORD_0": 34
          },
          "indices": 35,
          "material": 1,
          "mode": 4
        }
      ]
    },
    {
      "name": "Torus.001__0",
      "primitives": [
        {
          "attributes": {
            "NORMAL": 37,
            "POSITION": 36,
            "TEXCOORD_0": 38
          },
          "indices": 39,
          "material": 0,
          "mode": 4
        }
      ]
    }
  ],
  "nodes": [
    {
      "children": [
        1
      ],
      "matrix": [
        0.3536476194858551,
        -0.9338638782501221,
        -0.053212780505418986,
        0.0,
        -0.15138599276542664,
        -0.0010042513022197079,
        -0.9884741902351379,
        0.0,
        0.9230469465255737,
        0.3576272130012513,
        -0.14172907173633567,
        0.0,
        -0.3811158835887909,
        -0.20064334571361542,
        0.031724363565444905,
        1.0
      ],
      "name": "Sketchfab_model"
    },
    {
      "children": [
        2
      ],
      "matrix": [
        1.0,
        0.0,
        0.0,
        0.0,
        0.0,
        0.0,
        1.0,
        0.0,
        0.0,
        -1.0,
        0.0,
        0.0,
        0.0,
        0.0,
        0.0,
        1.0
      ],
      "name": "e42a32e3e8c64667bd1e626a2ea0c81b.fbx"
    },
    {
      "children": [
        3,
        6,
        8,
        10,
        12,
        14,
        16,
        18,
        20
      ],
      "name": "RootNode"
    },
    {
      "children": [
        4,
        5
      ],
      "matrix": [
        1.0,
        0.0,
        0.0,
        0.0,
        0.0,
        -1.6292067939183141e-07,
        -0.9999999999999868,
        0.0,
        0.0,
        0.9999999999999868,
        -1.6292067939183141e-07,
        0.0,
        0.0,
        0.0,
        0.0,
        1.0
      ],
      "name": "Hoja "
    },
    {
      "mesh": 0,
      "name": "Hoja _Metal_0"
    },
    {
      "mesh": 1,
      "name": "Hoja _Blue Metal_0"
    },
    {
      "children": [
        7
      ],
      "matrix": [
        1.0,
        0.0,
        0.0,
        0.0,
        -0.0,
        -1.6292067939183141e-07,
        -0.9999999999999868,
        0.0,
        0.0,
        0.9999999999999868,
        -1.6292067939183141e-07,
        0.0,
        -9.765582831278152e-08,
        -0.9029256105422974,
        1.3836793044674778e-08,
        1.0
      ],
      "name": "Cylinder Handle"
    },
    {
      "mesh": 2,
      "name": "Cylinder Handle_Cylinder Yellow_0"
    },
    {
      "children": [
        9
      ],
      "matrix": [
        1.0,
        0.0,
        0.0,
        0.0,
        0.0,
        -1.6292067939183141e-07,
        -0.9999999999999868,
        0.0,
        0.0,
        0.9999999999999868,
        -1.6292067939183141e-07,
        0.0,
        0.0,
        0.0,
        0.0,
        1.0
      ],
      "name": "Handle Yellow"
    },
    {
      "mesh": 3,
      "name": "Handle Yellow_Yellow Handle_0"
    },
    {
      "children": [
        11
      ],
      "matrix": [
        1.0,
        0.0,
        0.0,
        0.0,
        -0.0,
        -1.6292067939183141e-07,
        -0.9999999999999868,
        0.0,
        0.0,
        0.9999999999999868,
        -1.6292067939183141e-07,
        0.0,
        -9.765582831278152e-08,
        -2.107388496398926,
        1.3836793044674778e-08,
        1.0
      ],
      "name": "Cylinder Handle.001"
    },
    {
      "mesh": 4,
      "name": "Cylinder Handle.001_Cylinder Yellow_0"
    },
    {
      "children": [
        13
      ],
      "matrix": [
        1.0,
        0.0,
        0.0,
        0.0,
        -0.0,
        -1.6292067939183141e-07,
        -0.9999999999999868,
        0.0,
        0.0,
        0.9999999999999868,
        -1.6292067939183141e-07,
        0.0,
        -9.861486205409165e-08,
        -1.0346115827560425,
        9.313225746154785e-09,
        1.0
      ],
      "name": "Handle"
    },
    {
      "mesh": 5,
      "name": "Handle_HandleBlack_0"
    },
    {
      "children": [
        15
      ],
      "matrix": [
        1.0,
        0.0,
        0.0,
        0.0,
        -0.0,
        -1.6292067939183141e-07,
        -0.9999999999999868,
        0.0,
        0.0,
        0.9999999999999868,
        -1.6292067939183141e-07,
        0.0,
        -9.91537376648921e-08,
        -2.329461097717285,
        9.313225746154785e-09,
        1.0
      ],
      "name": "Torus"
    },
    {
      "mesh": 6,
      "name": "Torus_Yellow Handle_0"
    },
    {
      "children": [
        17
      ],
      "matrix": [
        1.0,
        0.0,
        0.0,
        0.0,
        -0.0,
        -1.6292067939183141e-07,
        -0.9999999999999868,
        0.0,
        0.0,
        0.9999999999999868,
        -1.6292067939183141e-07,
        0.0,
        -0.10401328653097153,
        -2.529632806777954,
        -0.04098251089453697,
        1.0
      ],
      "name": "Chain"
    },
    {
      "mesh": 7,
      "name": "Chain_Metal Rough_0"
    },
    {
      "children": [
        19
      ],
      "matrix": [
        1.0,
        0.0,
        0.0,
        0.0,
        -0.0,
        -1.6292067939183141e-07,
        -0.9999999999999868,
        0.0,
        0.0,
        0.9999999999999868,
        -1.6292067939183141e-07,
        0.0,
        -1.1842176914215088,
        -2.0359716415405273,
        0.02672281302511692,
        1.0
      ],
      "name": "Mickey Symbol"
    },
    {
      "mesh": 8,
      "name": "Mickey Symbol_Metal_0"
    },
    {
      "children": [
        21
      ],
      "matrix": [
        1.0,
        0.0,
        0.0,
        0.0,
        -0.0,
        -1.6292067939183141e-07,
        -0.9999999999999868,
        0.0,
        0.0,
        0.9999999999999868,
        -1.6292067939183141e-07,
        0.0,
        -1.1596508026123047,
        -2.0847420692443848,
        0.03086412325501442,
        1.0
      ],
      "name": "Torus.001"
    },
    {
      "mesh": 9,
      "name": "Torus.001__0"
    }
  ],
  "scene": 0,
  "scenes": [
    {
      "name": "Sketchfab_Scene",
      "nodes": [
        0
      ]
    }
  ]
}
